<?xml version="1.0" encoding="utf-8"?>
<!-- Generator: Adobe Illustrator 17.0.0, SVG Export Plug-In . SVG Version: 6.00 Build 0)  -->
<!DOCTYPE svg PUBLIC "-//W3C//DTD SVG 1.1//EN" "http://www.w3.org/Graphics/SVG/1.1/DTD/svg11.dtd">
<svg version="1.1" id="Слой_1" xmlns="http://www.w3.org/2000/svg" xmlns:xlink="http://www.w3.org/1999/xlink" x="0px" y="0px"
	 width="200.803px" height="69.48px" viewBox="0 0 200.803 69.48" enable-background="new 0 0 200.803 69.48" xml:space="preserve">
<g>
	<defs>
		<rect id="SVGID_1_" y="0" width="200.803" height="69.48"/>
	</defs>
	<clipPath id="SVGID_2_">
		<use xlink:href="#SVGID_1_"  overflow="visible"/>
	</clipPath>
	<path clip-path="url(#SVGID_2_)" d="M149.312,37.969h-0.299c-1.273,0-2.283-1.049-2.283-2.397s1.01-2.47,2.283-2.47h0.299
		c1.236,0,2.285,1.122,2.285,2.47S150.548,37.969,149.312,37.969"/>
	<path clip-path="url(#SVGID_2_)" d="M180.053,26.472v0.151v9.063c0,1.273-0.973,2.246-2.209,2.246
		c-1.236,0-2.285-0.973-2.285-2.246v-9.063v-0.151V26.36c0-1.46-1.309-2.584-2.845-2.584c-1.647,0-2.958,1.124-2.958,2.584v0.112
		v0.151v9.063c0,1.273-1.013,2.246-2.21,2.246c-1.272,0-2.248-0.973-2.248-2.246v-9.063v-0.151V26.36c0-1.46-1.309-2.584-2.92-2.584
		c-1.611,0-2.92,1.124-2.92,2.584v9.438c0,1.198-0.975,2.21-2.248,2.21c-1.197,0-2.246-1.012-2.246-2.21V21.493
		c0-1.236,1.049-2.284,2.246-2.284c0.711,0,1.387,0.374,1.723,0.898c1.048-0.524,2.209-0.825,3.445-0.825
		c1.986,0,3.781,0.749,5.168,2.024c1.312-1.275,3.108-2.024,5.168-2.024c4.008,0,7.339,3.185,7.339,7.078V26.472z"/>
	<path clip-path="url(#SVGID_2_)" d="M198.414,27.395l-10.868,3.861c1.208,1.836,3.56,2.751,5.75,1.973
		c1.128-0.401,2.622-1.448,3.228-2.658c0.558-1.112,1.899-1.589,3.011-1.031c1.135,0.511,1.589,1.899,1.029,3.012
		c-1.275,2.56-3.766,4.161-5.777,4.875c-4.906,1.743-10.227-0.818-11.969-5.722c-1.718-4.833,0.769-10.248,5.675-11.992
		c0.527-0.187,1.035-0.329,1.603-0.409c2.561-0.394,5.135,0.36,7.158,2.027c0.915,0.788,2.013,1.867,2.356,3.057
		c0.113,0.316,0.098,0.719,0.082,1.122C199.648,26.282,199.262,27.093,198.414,27.395 M186.881,27.48l7.479-2.658
		c-1.18-1.091-2.763-1.403-4.35-0.84C188.387,24.559,187.263,25.873,186.881,27.48"/>
	<path clip-path="url(#SVGID_2_)" fill="#FFFFFF" d="M112.789,0H28.76C12.876,0,0,12.876,0,28.76
		c0,15.883,12.876,28.759,28.76,28.759h77.088v7.317c0,4.129,4.992,6.197,7.912,3.277l16.16-16.161h-0.13
		c7.128-5.234,11.759-13.671,11.759-23.192C141.549,12.876,128.672,0,112.789,0"/>
	<path clip-path="url(#SVGID_2_)" d="M32.742,35.572c0,1.275-1.012,2.248-2.248,2.248c-0.336,0-0.635,0-0.974-0.039
		c-1.236-0.187-2.433-0.71-3.294-1.684c-0.75-0.861-1.273-2.209-1.273-3.37v-9.438h-1.61c-1.237,0-2.249-1.01-2.249-2.246
		s1.012-2.248,2.249-2.248h1.61v-7.151c0-1.236,1.01-2.248,2.246-2.248s2.248,1.012,2.248,2.248v7.151h1.234
		c1.236,0,2.248,1.012,2.248,2.248s-1.012,2.246-2.248,2.246h-1.234v8.913c0.073,0.299,0,0.749,0.261,0.973
		c0.187,0.188,0.525,0.151,0.786,0.151C31.729,33.326,32.742,34.338,32.742,35.572"/>
	<path clip-path="url(#SVGID_2_)" d="M44.231,38.044c-4.869,0-8.874-4.231-8.874-9.4v-7.151c0-1.236,0.934-2.248,2.097-2.248
		c1.198,0,2.358,1.012,2.358,2.248v7.151c0,2.697,2.248,4.869,4.419,4.869c2.548,0,4.458-2.172,4.458-4.869v-6.851
		c0-1.275,1.309-2.249,2.321-2.249c1.161,0,2.134,0.974,2.134,2.249v6.851C53.144,33.813,49.136,38.044,44.231,38.044"/>
	<path clip-path="url(#SVGID_2_)" d="M66.131,35.572c0,1.275-1.012,2.248-2.248,2.248c-0.336,0-0.635,0-0.974-0.039
		c-1.236-0.187-2.433-0.71-3.294-1.684c-0.75-0.861-1.273-2.209-1.273-3.37v-9.438h-1.61c-1.237,0-2.249-1.01-2.249-2.246
		s1.012-2.248,2.249-2.248h1.61v-7.151c0-1.236,1.01-2.248,2.246-2.248s2.248,1.012,2.248,2.248v7.151h1.234
		c1.236,0,2.248,1.012,2.248,2.248s-1.012,2.246-2.248,2.246h-1.234v8.913c0.073,0.299,0,0.749,0.261,0.973
		c0.187,0.188,0.525,0.151,0.786,0.151C65.119,33.326,66.131,34.338,66.131,35.572"/>
	<path clip-path="url(#SVGID_2_)" d="M77.772,37.857c-5.168,0-9.399-4.195-9.399-9.4c0-5.168,4.231-9.399,9.399-9.399
		c5.168,0,9.399,4.231,9.436,9.438C87.171,33.662,82.94,37.857,77.772,37.857 M77.772,23.664c-2.659,0-4.793,2.134-4.793,4.793
		c0,2.66,2.134,4.794,4.793,4.794c2.659,0,4.793-2.134,4.793-4.794C82.565,25.798,80.431,23.664,77.772,23.664"/>
	<path clip-path="url(#SVGID_2_)" d="M105.251,24.9c-0.861,0.898-2.248,0.973-3.185,0.112c-0.822-0.786-1.947-1.236-3.107-1.236
		c-2.548,0-4.645,2.173-4.645,4.832v7.078c0,1.234-1.01,2.246-2.246,2.246s-2.246-1.012-2.246-2.246V21.343
		c0-1.236,1.01-2.21,2.246-2.21c1.012,0,1.835,0.638,2.134,1.536c1.387-0.862,3.034-1.387,4.757-1.387
		c2.321,0,4.494,0.9,6.178,2.472C106.036,22.579,106.111,24.002,105.251,24.9"/>
	<path clip-path="url(#SVGID_2_)" d="M124.191,21.53v16.366c0,5.204-4.156,9.472-9.212,9.472c-2.696,0-5.205-1.197-6.964-3.294
		c-0.788-0.937-0.674-2.36,0.224-3.183c0.898-0.825,2.285-0.713,3.071,0.263c0.936,1.085,2.284,1.722,3.669,1.722
		c2.659,0,4.832-2.248,4.832-4.98V36.36c-1.236,0.711-2.696,1.161-4.27,1.161c-4.718,0-8.575-4.119-8.575-9.212v-6.704
		c0-1.199,0.974-2.248,2.171-2.248c1.199,0,2.173,1.049,2.173,2.248v6.704c0,2.584,1.91,4.718,4.231,4.718
		c2.36,0,4.27-2.134,4.27-4.718V21.53c0-1.236,1.01-2.248,2.171-2.248C123.218,19.282,124.191,20.294,124.191,21.53"/>
</g>
</svg>
